{"title":"Whore (1991) - Ken Russell","uid":7199004,"size":1483673109,"categoryP":"video","categoryS":"movies","magnet":"?xt=urn:btih:e3d0dcef33ad543cc564a047f3ce457ced601976&amp;dn=Whore+%281991%29+-+Ken+Russell&amp;tr=udp%3A%2F%2Ftracker.openbittorrent.com%3A80&amp;tr=udp%3A%2F%2Fopen.demonii.com%3A1337&amp;tr=udp%3A%2F%2Ftracker.coppersurfer.tk%3A6969&amp;tr=udp%3A%2F%2Fexodus.desync.com%3A6969","seeders":7,"leechers":1,"uploader":"mariopan","files":3,"time":1334872081,"description":"This choppy melodrama investigates the life of a prostitute in a pseudo-documentary style. The bottom line of the film is that a life of a hooker isn't easy...\n\nDirector:\nKen Russell\n\nWriters:\nDavid Hines (play), Ken Russell and Deborah Dalton (screenplay)\n\nStars:\nTheresa Russell, Benjamin Mouton and Michael Crabtree\n\nGeneral\n\nFormat                           : AVI\nFormat/Info                      : Audio Video Interleave\nFile size                        : 1.37 GiB\nDuration                         : 1h 21mn\nOverall bit rate                 : 2 393 Kbps\nWriting application              : FairUse Wizard - http://fairusewizard.com\nWriting library                  : The best and REALLY easy backup tool\n\nVideo\n\nID                               : 0\nFormat                           : MPEG-4 Visual\nFormat profile                   : Advanced Simple@L5\nFormat settings, BVOP            : Yes\nFormat settings, QPel            : No\nFormat settings, GMC             : No warppoints\nFormat settings, Matrix          : Default (H.263)\nMuxing mode                      : Packed bitstream\nCodec ID                         : XVID\nCodec ID/Hint                    : XviD\nDuration                         : 1h 21mn\nBit rate                         : 2 191 Kbps\nWidth                            : 672 pixels\nHeight                           : 384 pixels\nDisplay aspect ratio             : 16:9\nFrame rate                       : 25.000 fps\nColor space                      : YUV\nChroma subsampling               : 4:2:0\nBit depth                        : 8 bits\nScan type                        : Progressive\nBits/(Pixel*Frame)               : 0.340\nStream size                      : 1.25 GiB (92%)\nWriting library                  : XviD 1.1.0 (UTC 2005-11-22)\n\nAudio\n\nID                               : 1\nFormat                           : AC-3\nFormat/Info                      : Audio Coding 3\nMode extension                   : CM (complete main)\nCodec ID                         : 2000\nDuration                         : 1h 21mn\nBit rate mode                    : Constant\nBit rate                         : 192 Kbps\nChannel(s)                       : 2 channels\nChannel positions                : Front: L R\nSampling rate                    : 48.0 KHz\nBit depth                        : 16 bits\nStream size                      : 112 MiB (8%)\nAlignment                        : Split accross interleaves\nInterleave, duration             : 40 ms (1.00 video frame)\nInterleave, preload duration     : 500 ms ","torrent":{"xt":"urn:btih:e3d0dcef33ad543cc564a047f3ce457ced601976","amp;dn":"Whore+%281991%29+-+Ken+Russell","amp;tr":["udp%3A%2F%2Ftracker.openbittorrent.com%3A80","udp%3A%2F%2Fopen.demonii.com%3A1337","udp%3A%2F%2Ftracker.coppersurfer.tk%3A6969","udp%3A%2F%2Fexodus.desync.com%3A6969"],"infoHash":"e3d0dcef33ad543cc564a047f3ce457ced601976","infoHashBuffer":{"type":"Buffer","data":[227,208,220,239,51,173,84,60,197,100,160,71,243,206,69,124,237,96,25,118]},"announce":[],"urlList":[]}}